<?xml version="1.0" encoding="UTF-8"?>
<svg width="1440px" height="1024px" viewBox="0 0 1440 1024" version="1.1" xmlns="http://www.w3.org/2000/svg" xmlns:xlink="http://www.w3.org/1999/xlink">
    <title>Artboard</title>
    <defs>
        <radialGradient cx="50%" cy="21.2076052%" fx="50%" fy="21.2076052%" r="100%" gradientTransform="translate(0.500000,0.212076),scale(0.652943,1.000000),rotate(90.000000),translate(-0.500000,-0.212076)" id="radialGradient-1">
            <stop stop-color="#B3F3B6" offset="0%"></stop>
            <stop stop-color="#028CAC" offset="100%"></stop>
        </radialGradient>
        <radialGradient cx="50%" cy="21.2076052%" fx="50%" fy="21.2076052%" r="100%" gradientTransform="translate(0.500000,0.212076),scale(0.652943,1.000000),rotate(90.000000),translate(-0.500000,-0.212076)" id="radialGradient-2">
            <stop stop-color="#B3F3B6" stop-opacity="0.422066215" offset="0%"></stop>
            <stop stop-color="#028CAC" stop-opacity="0.509232955" offset="100%"></stop>
        </radialGradient>
        <radialGradient cx="50%" cy="21.2076052%" fx="50%" fy="21.2076052%" r="100%" gradientTransform="translate(0.500000,0.212076),scale(0.699417,1.000000),rotate(90.000000),translate(-0.500000,-0.212076)" id="radialGradient-3">
            <stop stop-color="#1FD4FF" stop-opacity="0" offset="0%"></stop>
            <stop stop-color="#F3EEB3" stop-opacity="0.208861451" offset="100%"></stop>
        </radialGradient>
    </defs>
    <g id="Artboard" stroke="none" stroke-width="1" fill="none" fill-rule="evenodd">
        <path d="" id="Path-2" stroke="#979797"></path>
        <path d="M-2.07762696e-11,646.135362 C160.393626,500.849544 352.941623,512.860753 577.643992,682.168988 C727.785595,820.684147 861.832715,895.358253 979.785352,906.191308 C1061.27843,913.675829 1344.71354,771.301713 1110.00571,790.386193 C742.29109,820.285673 818.04572,416.828195 1182.48457,567.289868 C1582.14435,732.292802 1679.58815,746.196179 1474.81598,609 L1440,-202.985825 L-2.06767936e-11,-202.985825 C-160.393626,508.380784 -160.393626,791.421179 -2.07762696e-11,646.135362 Z" id="Path-4" stroke="url(#radialGradient-2)" stroke-width="36" fill="url(#radialGradient-1)"></path>
        <path d="M-368.70478,385.121187 C-208.311154,239.835369 39.1207772,259.758332 373.591014,444.890075 C447.668586,488.566547 526.831772,555.3289 611.080571,645.177133 C656.034947,693.119315 529.684463,459.559988 476.573634,299.941299 C467.783544,273.523663 419.377897,49.7274949 667.626787,166.202567 C928.42259,288.564484 1074.53287,230.108872 1105.95763,-9.16426901 L1071.29522,-464 L-368.70478,-464 C-529.098407,247.366609 -529.098407,530.407004 -368.70478,385.121187 Z" id="Path-4" fill="url(#radialGradient-3)" transform="translate(308.478817, 93.770111) rotate(-12.000000) translate(-308.478817, -93.770111) "></path>
    </g>
</svg>